<svg xmlns="http://www.w3.org/2000/svg" version="1.1" xmlns:xlink="http://www.w3.org/1999/xlink" xmlns:svgjs="http://svgjs.com/svgjs" width="412" height="914" preserveAspectRatio="none" viewBox="0 0 412 914"><g mask="url(&quot;#SvgjsMask1012&quot;)" fill="none"><rect width="412" height="914" x="0" y="0" fill="rgba(0, 0, 0, 1)"></rect><path d="M9.54 1051.85C70.92 1009.05 66.77 789.65 143.95 784.4 221.12 779.15 211.15 898.65 278.35 898.65 345.56 898.65 369.28 791.76 412.76 784.4" stroke="rgba(100, 252, 218, 1)" stroke-width="2"></path><path d="M210.85 1005.2C260.77 853.43 187.79 429.34 293.96 371.56 400.14 313.78 395.92 566.34 460.19 590.92" stroke="rgba(100, 252, 218, 1)" stroke-width="2"></path><path d="M85.92 1069.86C159.95 852.9 78.95 323.13 209.57 161.28 340.2-0.57 271.4 275.53 333.23 275.53 395.05 275.53 415.61 169.56 456.88 161.28" stroke="rgba(100, 252, 218, 1)" stroke-width="2"></path><path d="M132.5 1067.38C213.12 948.66 192.71 520.53 279.94 512.63 367.17 504.73 354.82 811.53 427.38 878.23" stroke="rgba(100, 252, 218, 1)" stroke-width="2"></path><path d="M248.46 939.61C312.04 780.66 280.29 283.19 356.26 263.36 432.24 243.53 404.02 612.95 464.07 711.22" stroke="rgba(100, 252, 218, 1)" stroke-width="2"></path></g><defs><mask id="SvgjsMask1012"><rect width="412" height="914" fill="#ffffff"></rect></mask></defs></svg>