<svg xmlns="http://www.w3.org/2000/svg" version="1.1" xmlns:xlink="http://www.w3.org/1999/xlink" xmlns:svgjs="http://svgjs.com/svgjs" width="412" height="914" preserveAspectRatio="none" viewBox="0 0 412 914"><g mask="url(&quot;#SvgjsMask1021&quot;)" fill="none"><rect width="412" height="914" x="0" y="0" fill="rgba(1, 16, 18, 1)"></rect><path d="M45.16 17.66L70.27 32.16L70.27 61.16L45.16 75.66L20.04 61.16L20.04 32.16zM20.04 61.16L45.16 75.66L45.16 104.66L20.04 119.16L-5.08 104.66L-5.08 75.66zM20.04 235.16L45.16 249.66L45.16 278.66L20.04 293.16L-5.08 278.66L-5.08 249.66zM45.16 365.66L70.27 380.16L70.27 409.16L45.16 423.66L20.04 409.16L20.04 380.16zM20.04 409.16L45.16 423.66L45.16 452.66L20.04 467.16L-5.08 452.66L-5.08 423.66zM20.04 496.16L45.16 510.66L45.16 539.66L20.04 554.16L-5.08 539.66L-5.08 510.66zM20.04 670.16L45.16 684.66L45.16 713.66L20.04 728.16L-5.08 713.66L-5.08 684.66zM20.04 757.16L45.16 771.66L45.16 800.66L20.04 815.16L-5.08 800.66L-5.08 771.66zM45.16 800.66L70.27 815.16L70.27 844.16L45.16 858.66L20.04 844.16L20.04 815.16zM20.04 844.16L45.16 858.66L45.16 887.66L20.04 902.16L-5.08 887.66L-5.08 858.66zM45.16 887.66L70.27 902.16L70.27 931.16L45.16 945.66L20.04 931.16L20.04 902.16zM95.39 191.66L120.5 206.16L120.5 235.16L95.39 249.66L70.27 235.16L70.27 206.16zM70.27 235.16L95.39 249.66L95.39 278.66L70.27 293.16L45.16 278.66L45.16 249.66zM95.39 365.66L120.5 380.16L120.5 409.16L95.39 423.66L70.27 409.16L70.27 380.16zM95.39 626.66L120.5 641.16L120.5 670.16L95.39 684.66L70.27 670.16L70.27 641.16zM70.27 757.16L95.39 771.66L95.39 800.66L70.27 815.16L45.16 800.66L45.16 771.66zM70.27 844.16L95.39 858.66L95.39 887.66L70.27 902.16L45.16 887.66L45.16 858.66zM95.39 887.66L120.5 902.16L120.5 931.16L95.39 945.66L70.27 931.16L70.27 902.16zM145.62 191.66L170.73 206.16L170.73 235.16L145.62 249.66L120.5 235.16L120.5 206.16zM145.62 539.66L170.73 554.16L170.73 583.16L145.62 597.66L120.5 583.16L120.5 554.16zM120.5 583.16L145.62 597.66L145.62 626.66L120.5 641.16L95.39 626.66L95.39 597.66zM120.5 757.16L145.62 771.66L145.62 800.66L120.5 815.16L95.39 800.66L95.39 771.66zM145.62 800.66L170.73 815.16L170.73 844.16L145.62 858.66L120.5 844.16L120.5 815.16zM120.5 844.16L145.62 858.66L145.62 887.66L120.5 902.16L95.39 887.66L95.39 858.66zM145.62 887.66L170.73 902.16L170.73 931.16L145.62 945.66L120.5 931.16L120.5 902.16zM195.85 17.66L220.96 32.16L220.96 61.16L195.85 75.66L170.73 61.16L170.73 32.16zM170.73 61.16L195.85 75.66L195.85 104.66L170.73 119.16L145.62 104.66L145.62 75.66zM170.73 148.16L195.85 162.66L195.85 191.66L170.73 206.16L145.62 191.66L145.62 162.66zM170.73 322.16L195.85 336.66L195.85 365.66L170.73 380.16L145.62 365.66L145.62 336.66zM195.85 365.66L220.96 380.16L220.96 409.16L195.85 423.66L170.73 409.16L170.73 380.16zM195.85 452.66L220.96 467.16L220.96 496.16L195.85 510.66L170.73 496.16L170.73 467.16zM170.73 757.16L195.85 771.66L195.85 800.66L170.73 815.16L145.62 800.66L145.62 771.66zM220.96 -25.84L246.08 -11.34L246.08 17.66L220.96 32.16L195.85 17.66L195.85 -11.34zM246.08 17.66L271.19 32.16L271.19 61.16L246.08 75.66L220.96 61.16L220.96 32.16zM246.08 104.66L271.19 119.16L271.19 148.16L246.08 162.66L220.96 148.16L220.96 119.16zM246.08 191.66L271.19 206.16L271.19 235.16L246.08 249.66L220.96 235.16L220.96 206.16zM220.96 235.16L246.08 249.66L246.08 278.66L220.96 293.16L195.85 278.66L195.85 249.66zM246.08 278.66L271.19 293.16L271.19 322.16L246.08 336.66L220.96 322.16L220.96 293.16zM220.96 409.16L246.08 423.66L246.08 452.66L220.96 467.16L195.85 452.66L195.85 423.66zM246.08 452.66L271.19 467.16L271.19 496.16L246.08 510.66L220.96 496.16L220.96 467.16zM220.96 496.16L246.08 510.66L246.08 539.66L220.96 554.16L195.85 539.66L195.85 510.66zM220.96 583.16L246.08 597.66L246.08 626.66L220.96 641.16L195.85 626.66L195.85 597.66zM220.96 670.16L246.08 684.66L246.08 713.66L220.96 728.16L195.85 713.66L195.85 684.66zM271.19 148.16L296.31 162.66L296.31 191.66L271.19 206.16L246.08 191.66L246.08 162.66zM296.31 191.66L321.43 206.16L321.43 235.16L296.31 249.66L271.19 235.16L271.19 206.16zM271.19 322.16L296.31 336.66L296.31 365.66L271.19 380.16L246.08 365.66L246.08 336.66zM271.19 496.16L296.31 510.66L296.31 539.66L271.19 554.16L246.08 539.66L246.08 510.66zM296.31 626.66L321.43 641.16L321.43 670.16L296.31 684.66L271.19 670.16L271.19 641.16zM296.31 713.66L321.43 728.16L321.43 757.16L296.31 771.66L271.19 757.16L271.19 728.16zM346.54 17.66L371.66 32.16L371.66 61.16L346.54 75.66L321.43 61.16L321.43 32.16zM346.54 104.66L371.66 119.16L371.66 148.16L346.54 162.66L321.43 148.16L321.43 119.16zM321.43 148.16L346.54 162.66L346.54 191.66L321.43 206.16L296.31 191.66L296.31 162.66zM346.54 191.66L371.66 206.16L371.66 235.16L346.54 249.66L321.43 235.16L321.43 206.16zM321.43 235.16L346.54 249.66L346.54 278.66L321.43 293.16L296.31 278.66L296.31 249.66zM321.43 409.16L346.54 423.66L346.54 452.66L321.43 467.16L296.31 452.66L296.31 423.66zM321.43 670.16L346.54 684.66L346.54 713.66L321.43 728.16L296.31 713.66L296.31 684.66zM321.43 844.16L346.54 858.66L346.54 887.66L321.43 902.16L296.31 887.66L296.31 858.66zM346.54 887.66L371.66 902.16L371.66 931.16L346.54 945.66L321.43 931.16L321.43 902.16zM371.66 -25.84L396.77 -11.34L396.77 17.66L371.66 32.16L346.54 17.66L346.54 -11.34zM396.77 365.66L421.89 380.16L421.89 409.16L396.77 423.66L371.66 409.16L371.66 380.16zM371.66 409.16L396.77 423.66L396.77 452.66L371.66 467.16L346.54 452.66L346.54 423.66zM371.66 496.16L396.77 510.66L396.77 539.66L371.66 554.16L346.54 539.66L346.54 510.66zM396.77 626.66L421.89 641.16L421.89 670.16L396.77 684.66L371.66 670.16L371.66 641.16zM371.66 670.16L396.77 684.66L396.77 713.66L371.66 728.16L346.54 713.66L346.54 684.66zM371.66 757.16L396.77 771.66L396.77 800.66L371.66 815.16L346.54 800.66L346.54 771.66zM421.89 61.16L447 75.66L447 104.66L421.89 119.16L396.77 104.66L396.77 75.66zM447 104.66L472.12 119.16L472.12 148.16L447 162.66L421.89 148.16L421.89 119.16zM447 191.66L472.12 206.16L472.12 235.16L447 249.66L421.89 235.16L421.89 206.16zM421.89 322.16L447 336.66L447 365.66L421.89 380.16L396.77 365.66L396.77 336.66zM447 452.66L472.12 467.16L472.12 496.16L447 510.66L421.89 496.16L421.89 467.16zM421.89 496.16L447 510.66L447 539.66L421.89 554.16L396.77 539.66L396.77 510.66zM447 539.66L472.12 554.16L472.12 583.16L447 597.66L421.89 583.16L421.89 554.16zM421.89 583.16L447 597.66L447 626.66L421.89 641.16L396.77 626.66L396.77 597.66zM421.89 670.16L447 684.66L447 713.66L421.89 728.16L396.77 713.66L396.77 684.66z" stroke="rgba(100, 252, 218, 0.13)" stroke-width="2"></path><path d="M42.16 17.66 a3 3 0 1 0 6 0 a3 3 0 1 0 -6 0zM67.27 32.16 a3 3 0 1 0 6 0 a3 3 0 1 0 -6 0zM67.27 61.16 a3 3 0 1 0 6 0 a3 3 0 1 0 -6 0zM42.16 75.66 a3 3 0 1 0 6 0 a3 3 0 1 0 -6 0zM17.04 61.16 a3 3 0 1 0 6 0 a3 3 0 1 0 -6 0zM17.04 32.16 a3 3 0 1 0 6 0 a3 3 0 1 0 -6 0zM42.16 104.66 a3 3 0 1 0 6 0 a3 3 0 1 0 -6 0zM17.04 119.16 a3 3 0 1 0 6 0 a3 3 0 1 0 -6 0zM-8.08 104.66 a3 3 0 1 0 6 0 a3 3 0 1 0 -6 0zM-8.08 75.66 a3 3 0 1 0 6 0 a3 3 0 1 0 -6 0zM17.04 235.16 a3 3 0 1 0 6 0 a3 3 0 1 0 -6 0zM42.16 249.66 a3 3 0 1 0 6 0 a3 3 0 1 0 -6 0zM42.16 278.66 a3 3 0 1 0 6 0 a3 3 0 1 0 -6 0zM17.04 293.16 a3 3 0 1 0 6 0 a3 3 0 1 0 -6 0zM-8.08 278.66 a3 3 0 1 0 6 0 a3 3 0 1 0 -6 0zM-8.08 249.66 a3 3 0 1 0 6 0 a3 3 0 1 0 -6 0zM42.16 365.66 a3 3 0 1 0 6 0 a3 3 0 1 0 -6 0zM67.27 380.16 a3 3 0 1 0 6 0 a3 3 0 1 0 -6 0zM67.27 409.16 a3 3 0 1 0 6 0 a3 3 0 1 0 -6 0zM42.16 423.66 a3 3 0 1 0 6 0 a3 3 0 1 0 -6 0zM17.04 409.16 a3 3 0 1 0 6 0 a3 3 0 1 0 -6 0zM17.04 380.16 a3 3 0 1 0 6 0 a3 3 0 1 0 -6 0zM42.16 452.66 a3 3 0 1 0 6 0 a3 3 0 1 0 -6 0zM17.04 467.16 a3 3 0 1 0 6 0 a3 3 0 1 0 -6 0zM-8.08 452.66 a3 3 0 1 0 6 0 a3 3 0 1 0 -6 0zM-8.08 423.66 a3 3 0 1 0 6 0 a3 3 0 1 0 -6 0zM17.04 496.16 a3 3 0 1 0 6 0 a3 3 0 1 0 -6 0zM42.16 510.66 a3 3 0 1 0 6 0 a3 3 0 1 0 -6 0zM42.16 539.66 a3 3 0 1 0 6 0 a3 3 0 1 0 -6 0zM17.04 554.16 a3 3 0 1 0 6 0 a3 3 0 1 0 -6 0zM-8.08 539.66 a3 3 0 1 0 6 0 a3 3 0 1 0 -6 0zM-8.08 510.66 a3 3 0 1 0 6 0 a3 3 0 1 0 -6 0zM17.04 670.16 a3 3 0 1 0 6 0 a3 3 0 1 0 -6 0zM42.16 684.66 a3 3 0 1 0 6 0 a3 3 0 1 0 -6 0zM42.16 713.66 a3 3 0 1 0 6 0 a3 3 0 1 0 -6 0zM17.04 728.16 a3 3 0 1 0 6 0 a3 3 0 1 0 -6 0zM-8.08 713.66 a3 3 0 1 0 6 0 a3 3 0 1 0 -6 0zM-8.08 684.66 a3 3 0 1 0 6 0 a3 3 0 1 0 -6 0zM17.04 757.16 a3 3 0 1 0 6 0 a3 3 0 1 0 -6 0zM42.16 771.66 a3 3 0 1 0 6 0 a3 3 0 1 0 -6 0zM42.16 800.66 a3 3 0 1 0 6 0 a3 3 0 1 0 -6 0zM17.04 815.16 a3 3 0 1 0 6 0 a3 3 0 1 0 -6 0zM-8.08 800.66 a3 3 0 1 0 6 0 a3 3 0 1 0 -6 0zM-8.08 771.66 a3 3 0 1 0 6 0 a3 3 0 1 0 -6 0zM67.27 815.16 a3 3 0 1 0 6 0 a3 3 0 1 0 -6 0zM67.27 844.16 a3 3 0 1 0 6 0 a3 3 0 1 0 -6 0zM42.16 858.66 a3 3 0 1 0 6 0 a3 3 0 1 0 -6 0zM17.04 844.16 a3 3 0 1 0 6 0 a3 3 0 1 0 -6 0zM42.16 887.66 a3 3 0 1 0 6 0 a3 3 0 1 0 -6 0zM17.04 902.16 a3 3 0 1 0 6 0 a3 3 0 1 0 -6 0zM-8.08 887.66 a3 3 0 1 0 6 0 a3 3 0 1 0 -6 0zM-8.08 858.66 a3 3 0 1 0 6 0 a3 3 0 1 0 -6 0zM67.27 902.16 a3 3 0 1 0 6 0 a3 3 0 1 0 -6 0zM67.27 931.16 a3 3 0 1 0 6 0 a3 3 0 1 0 -6 0zM42.16 945.66 a3 3 0 1 0 6 0 a3 3 0 1 0 -6 0zM17.04 931.16 a3 3 0 1 0 6 0 a3 3 0 1 0 -6 0zM92.39 191.66 a3 3 0 1 0 6 0 a3 3 0 1 0 -6 0zM117.5 206.16 a3 3 0 1 0 6 0 a3 3 0 1 0 -6 0zM117.5 235.16 a3 3 0 1 0 6 0 a3 3 0 1 0 -6 0zM92.39 249.66 a3 3 0 1 0 6 0 a3 3 0 1 0 -6 0zM67.27 235.16 a3 3 0 1 0 6 0 a3 3 0 1 0 -6 0zM67.27 206.16 a3 3 0 1 0 6 0 a3 3 0 1 0 -6 0zM92.39 278.66 a3 3 0 1 0 6 0 a3 3 0 1 0 -6 0zM67.27 293.16 a3 3 0 1 0 6 0 a3 3 0 1 0 -6 0zM92.39 365.66 a3 3 0 1 0 6 0 a3 3 0 1 0 -6 0zM117.5 380.16 a3 3 0 1 0 6 0 a3 3 0 1 0 -6 0zM117.5 409.16 a3 3 0 1 0 6 0 a3 3 0 1 0 -6 0zM92.39 423.66 a3 3 0 1 0 6 0 a3 3 0 1 0 -6 0zM92.39 626.66 a3 3 0 1 0 6 0 a3 3 0 1 0 -6 0zM117.5 641.16 a3 3 0 1 0 6 0 a3 3 0 1 0 -6 0zM117.5 670.16 a3 3 0 1 0 6 0 a3 3 0 1 0 -6 0zM92.39 684.66 a3 3 0 1 0 6 0 a3 3 0 1 0 -6 0zM67.27 670.16 a3 3 0 1 0 6 0 a3 3 0 1 0 -6 0zM67.27 641.16 a3 3 0 1 0 6 0 a3 3 0 1 0 -6 0zM67.27 757.16 a3 3 0 1 0 6 0 a3 3 0 1 0 -6 0zM92.39 771.66 a3 3 0 1 0 6 0 a3 3 0 1 0 -6 0zM92.39 800.66 a3 3 0 1 0 6 0 a3 3 0 1 0 -6 0zM92.39 858.66 a3 3 0 1 0 6 0 a3 3 0 1 0 -6 0zM92.39 887.66 a3 3 0 1 0 6 0 a3 3 0 1 0 -6 0zM117.5 902.16 a3 3 0 1 0 6 0 a3 3 0 1 0 -6 0zM117.5 931.16 a3 3 0 1 0 6 0 a3 3 0 1 0 -6 0zM92.39 945.66 a3 3 0 1 0 6 0 a3 3 0 1 0 -6 0zM142.62 191.66 a3 3 0 1 0 6 0 a3 3 0 1 0 -6 0zM167.73 206.16 a3 3 0 1 0 6 0 a3 3 0 1 0 -6 0zM167.73 235.16 a3 3 0 1 0 6 0 a3 3 0 1 0 -6 0zM142.62 249.66 a3 3 0 1 0 6 0 a3 3 0 1 0 -6 0zM142.62 539.66 a3 3 0 1 0 6 0 a3 3 0 1 0 -6 0zM167.73 554.16 a3 3 0 1 0 6 0 a3 3 0 1 0 -6 0zM167.73 583.16 a3 3 0 1 0 6 0 a3 3 0 1 0 -6 0zM142.62 597.66 a3 3 0 1 0 6 0 a3 3 0 1 0 -6 0zM117.5 583.16 a3 3 0 1 0 6 0 a3 3 0 1 0 -6 0zM117.5 554.16 a3 3 0 1 0 6 0 a3 3 0 1 0 -6 0zM142.62 626.66 a3 3 0 1 0 6 0 a3 3 0 1 0 -6 0zM92.39 597.66 a3 3 0 1 0 6 0 a3 3 0 1 0 -6 0zM117.5 757.16 a3 3 0 1 0 6 0 a3 3 0 1 0 -6 0zM142.62 771.66 a3 3 0 1 0 6 0 a3 3 0 1 0 -6 0zM142.62 800.66 a3 3 0 1 0 6 0 a3 3 0 1 0 -6 0zM117.5 815.16 a3 3 0 1 0 6 0 a3 3 0 1 0 -6 0zM167.73 815.16 a3 3 0 1 0 6 0 a3 3 0 1 0 -6 0zM167.73 844.16 a3 3 0 1 0 6 0 a3 3 0 1 0 -6 0zM142.62 858.66 a3 3 0 1 0 6 0 a3 3 0 1 0 -6 0zM117.5 844.16 a3 3 0 1 0 6 0 a3 3 0 1 0 -6 0zM142.62 887.66 a3 3 0 1 0 6 0 a3 3 0 1 0 -6 0zM167.73 902.16 a3 3 0 1 0 6 0 a3 3 0 1 0 -6 0zM167.73 931.16 a3 3 0 1 0 6 0 a3 3 0 1 0 -6 0zM142.62 945.66 a3 3 0 1 0 6 0 a3 3 0 1 0 -6 0zM192.85 17.66 a3 3 0 1 0 6 0 a3 3 0 1 0 -6 0zM217.96 32.16 a3 3 0 1 0 6 0 a3 3 0 1 0 -6 0zM217.96 61.16 a3 3 0 1 0 6 0 a3 3 0 1 0 -6 0zM192.85 75.66 a3 3 0 1 0 6 0 a3 3 0 1 0 -6 0zM167.73 61.16 a3 3 0 1 0 6 0 a3 3 0 1 0 -6 0zM167.73 32.16 a3 3 0 1 0 6 0 a3 3 0 1 0 -6 0zM192.85 104.66 a3 3 0 1 0 6 0 a3 3 0 1 0 -6 0zM167.73 119.16 a3 3 0 1 0 6 0 a3 3 0 1 0 -6 0zM142.62 104.66 a3 3 0 1 0 6 0 a3 3 0 1 0 -6 0zM142.62 75.66 a3 3 0 1 0 6 0 a3 3 0 1 0 -6 0zM167.73 148.16 a3 3 0 1 0 6 0 a3 3 0 1 0 -6 0zM192.85 162.66 a3 3 0 1 0 6 0 a3 3 0 1 0 -6 0zM192.85 191.66 a3 3 0 1 0 6 0 a3 3 0 1 0 -6 0zM142.62 162.66 a3 3 0 1 0 6 0 a3 3 0 1 0 -6 0zM167.73 322.16 a3 3 0 1 0 6 0 a3 3 0 1 0 -6 0zM192.85 336.66 a3 3 0 1 0 6 0 a3 3 0 1 0 -6 0zM192.85 365.66 a3 3 0 1 0 6 0 a3 3 0 1 0 -6 0zM167.73 380.16 a3 3 0 1 0 6 0 a3 3 0 1 0 -6 0zM142.62 365.66 a3 3 0 1 0 6 0 a3 3 0 1 0 -6 0zM142.62 336.66 a3 3 0 1 0 6 0 a3 3 0 1 0 -6 0zM217.96 380.16 a3 3 0 1 0 6 0 a3 3 0 1 0 -6 0zM217.96 409.16 a3 3 0 1 0 6 0 a3 3 0 1 0 -6 0zM192.85 423.66 a3 3 0 1 0 6 0 a3 3 0 1 0 -6 0zM167.73 409.16 a3 3 0 1 0 6 0 a3 3 0 1 0 -6 0zM192.85 452.66 a3 3 0 1 0 6 0 a3 3 0 1 0 -6 0zM217.96 467.16 a3 3 0 1 0 6 0 a3 3 0 1 0 -6 0zM217.96 496.16 a3 3 0 1 0 6 0 a3 3 0 1 0 -6 0zM192.85 510.66 a3 3 0 1 0 6 0 a3 3 0 1 0 -6 0zM167.73 496.16 a3 3 0 1 0 6 0 a3 3 0 1 0 -6 0zM167.73 467.16 a3 3 0 1 0 6 0 a3 3 0 1 0 -6 0zM167.73 757.16 a3 3 0 1 0 6 0 a3 3 0 1 0 -6 0zM192.85 771.66 a3 3 0 1 0 6 0 a3 3 0 1 0 -6 0zM192.85 800.66 a3 3 0 1 0 6 0 a3 3 0 1 0 -6 0zM217.96 -25.84 a3 3 0 1 0 6 0 a3 3 0 1 0 -6 0zM243.08 -11.34 a3 3 0 1 0 6 0 a3 3 0 1 0 -6 0zM243.08 17.66 a3 3 0 1 0 6 0 a3 3 0 1 0 -6 0zM192.85 -11.34 a3 3 0 1 0 6 0 a3 3 0 1 0 -6 0zM268.19 32.16 a3 3 0 1 0 6 0 a3 3 0 1 0 -6 0zM268.19 61.16 a3 3 0 1 0 6 0 a3 3 0 1 0 -6 0zM243.08 75.66 a3 3 0 1 0 6 0 a3 3 0 1 0 -6 0zM243.08 104.66 a3 3 0 1 0 6 0 a3 3 0 1 0 -6 0zM268.19 119.16 a3 3 0 1 0 6 0 a3 3 0 1 0 -6 0zM268.19 148.16 a3 3 0 1 0 6 0 a3 3 0 1 0 -6 0zM243.08 162.66 a3 3 0 1 0 6 0 a3 3 0 1 0 -6 0zM217.96 148.16 a3 3 0 1 0 6 0 a3 3 0 1 0 -6 0zM217.96 119.16 a3 3 0 1 0 6 0 a3 3 0 1 0 -6 0zM243.08 191.66 a3 3 0 1 0 6 0 a3 3 0 1 0 -6 0zM268.19 206.16 a3 3 0 1 0 6 0 a3 3 0 1 0 -6 0zM268.19 235.16 a3 3 0 1 0 6 0 a3 3 0 1 0 -6 0zM243.08 249.66 a3 3 0 1 0 6 0 a3 3 0 1 0 -6 0zM217.96 235.16 a3 3 0 1 0 6 0 a3 3 0 1 0 -6 0zM217.96 206.16 a3 3 0 1 0 6 0 a3 3 0 1 0 -6 0zM243.08 278.66 a3 3 0 1 0 6 0 a3 3 0 1 0 -6 0zM217.96 293.16 a3 3 0 1 0 6 0 a3 3 0 1 0 -6 0zM192.85 278.66 a3 3 0 1 0 6 0 a3 3 0 1 0 -6 0zM192.85 249.66 a3 3 0 1 0 6 0 a3 3 0 1 0 -6 0zM268.19 293.16 a3 3 0 1 0 6 0 a3 3 0 1 0 -6 0zM268.19 322.16 a3 3 0 1 0 6 0 a3 3 0 1 0 -6 0zM243.08 336.66 a3 3 0 1 0 6 0 a3 3 0 1 0 -6 0zM217.96 322.16 a3 3 0 1 0 6 0 a3 3 0 1 0 -6 0zM243.08 423.66 a3 3 0 1 0 6 0 a3 3 0 1 0 -6 0zM243.08 452.66 a3 3 0 1 0 6 0 a3 3 0 1 0 -6 0zM268.19 467.16 a3 3 0 1 0 6 0 a3 3 0 1 0 -6 0zM268.19 496.16 a3 3 0 1 0 6 0 a3 3 0 1 0 -6 0zM243.08 510.66 a3 3 0 1 0 6 0 a3 3 0 1 0 -6 0zM243.08 539.66 a3 3 0 1 0 6 0 a3 3 0 1 0 -6 0zM217.96 554.16 a3 3 0 1 0 6 0 a3 3 0 1 0 -6 0zM192.85 539.66 a3 3 0 1 0 6 0 a3 3 0 1 0 -6 0zM217.96 583.16 a3 3 0 1 0 6 0 a3 3 0 1 0 -6 0zM243.08 597.66 a3 3 0 1 0 6 0 a3 3 0 1 0 -6 0zM243.08 626.66 a3 3 0 1 0 6 0 a3 3 0 1 0 -6 0zM217.96 641.16 a3 3 0 1 0 6 0 a3 3 0 1 0 -6 0zM192.85 626.66 a3 3 0 1 0 6 0 a3 3 0 1 0 -6 0zM192.85 597.66 a3 3 0 1 0 6 0 a3 3 0 1 0 -6 0zM217.96 670.16 a3 3 0 1 0 6 0 a3 3 0 1 0 -6 0zM243.08 684.66 a3 3 0 1 0 6 0 a3 3 0 1 0 -6 0zM243.08 713.66 a3 3 0 1 0 6 0 a3 3 0 1 0 -6 0zM217.96 728.16 a3 3 0 1 0 6 0 a3 3 0 1 0 -6 0zM192.85 713.66 a3 3 0 1 0 6 0 a3 3 0 1 0 -6 0zM192.85 684.66 a3 3 0 1 0 6 0 a3 3 0 1 0 -6 0zM293.31 162.66 a3 3 0 1 0 6 0 a3 3 0 1 0 -6 0zM293.31 191.66 a3 3 0 1 0 6 0 a3 3 0 1 0 -6 0zM318.43 206.16 a3 3 0 1 0 6 0 a3 3 0 1 0 -6 0zM318.43 235.16 a3 3 0 1 0 6 0 a3 3 0 1 0 -6 0zM293.31 249.66 a3 3 0 1 0 6 0 a3 3 0 1 0 -6 0zM293.31 336.66 a3 3 0 1 0 6 0 a3 3 0 1 0 -6 0zM293.31 365.66 a3 3 0 1 0 6 0 a3 3 0 1 0 -6 0zM268.19 380.16 a3 3 0 1 0 6 0 a3 3 0 1 0 -6 0zM243.08 365.66 a3 3 0 1 0 6 0 a3 3 0 1 0 -6 0zM293.31 510.66 a3 3 0 1 0 6 0 a3 3 0 1 0 -6 0zM293.31 539.66 a3 3 0 1 0 6 0 a3 3 0 1 0 -6 0zM268.19 554.16 a3 3 0 1 0 6 0 a3 3 0 1 0 -6 0zM293.31 626.66 a3 3 0 1 0 6 0 a3 3 0 1 0 -6 0zM318.43 641.16 a3 3 0 1 0 6 0 a3 3 0 1 0 -6 0zM318.43 670.16 a3 3 0 1 0 6 0 a3 3 0 1 0 -6 0zM293.31 684.66 a3 3 0 1 0 6 0 a3 3 0 1 0 -6 0zM268.19 670.16 a3 3 0 1 0 6 0 a3 3 0 1 0 -6 0zM268.19 641.16 a3 3 0 1 0 6 0 a3 3 0 1 0 -6 0zM293.31 713.66 a3 3 0 1 0 6 0 a3 3 0 1 0 -6 0zM318.43 728.16 a3 3 0 1 0 6 0 a3 3 0 1 0 -6 0zM318.43 757.16 a3 3 0 1 0 6 0 a3 3 0 1 0 -6 0zM293.31 771.66 a3 3 0 1 0 6 0 a3 3 0 1 0 -6 0zM268.19 757.16 a3 3 0 1 0 6 0 a3 3 0 1 0 -6 0zM268.19 728.16 a3 3 0 1 0 6 0 a3 3 0 1 0 -6 0zM343.54 17.66 a3 3 0 1 0 6 0 a3 3 0 1 0 -6 0zM368.66 32.16 a3 3 0 1 0 6 0 a3 3 0 1 0 -6 0zM368.66 61.16 a3 3 0 1 0 6 0 a3 3 0 1 0 -6 0zM343.54 75.66 a3 3 0 1 0 6 0 a3 3 0 1 0 -6 0zM318.43 61.16 a3 3 0 1 0 6 0 a3 3 0 1 0 -6 0zM318.43 32.16 a3 3 0 1 0 6 0 a3 3 0 1 0 -6 0zM343.54 104.66 a3 3 0 1 0 6 0 a3 3 0 1 0 -6 0zM368.66 119.16 a3 3 0 1 0 6 0 a3 3 0 1 0 -6 0zM368.66 148.16 a3 3 0 1 0 6 0 a3 3 0 1 0 -6 0zM343.54 162.66 a3 3 0 1 0 6 0 a3 3 0 1 0 -6 0zM318.43 148.16 a3 3 0 1 0 6 0 a3 3 0 1 0 -6 0zM318.43 119.16 a3 3 0 1 0 6 0 a3 3 0 1 0 -6 0zM343.54 191.66 a3 3 0 1 0 6 0 a3 3 0 1 0 -6 0zM368.66 206.16 a3 3 0 1 0 6 0 a3 3 0 1 0 -6 0zM368.66 235.16 a3 3 0 1 0 6 0 a3 3 0 1 0 -6 0zM343.54 249.66 a3 3 0 1 0 6 0 a3 3 0 1 0 -6 0zM343.54 278.66 a3 3 0 1 0 6 0 a3 3 0 1 0 -6 0zM318.43 293.16 a3 3 0 1 0 6 0 a3 3 0 1 0 -6 0zM293.31 278.66 a3 3 0 1 0 6 0 a3 3 0 1 0 -6 0zM318.43 409.16 a3 3 0 1 0 6 0 a3 3 0 1 0 -6 0zM343.54 423.66 a3 3 0 1 0 6 0 a3 3 0 1 0 -6 0zM343.54 452.66 a3 3 0 1 0 6 0 a3 3 0 1 0 -6 0zM318.43 467.16 a3 3 0 1 0 6 0 a3 3 0 1 0 -6 0zM293.31 452.66 a3 3 0 1 0 6 0 a3 3 0 1 0 -6 0zM293.31 423.66 a3 3 0 1 0 6 0 a3 3 0 1 0 -6 0zM343.54 684.66 a3 3 0 1 0 6 0 a3 3 0 1 0 -6 0zM343.54 713.66 a3 3 0 1 0 6 0 a3 3 0 1 0 -6 0zM318.43 844.16 a3 3 0 1 0 6 0 a3 3 0 1 0 -6 0zM343.54 858.66 a3 3 0 1 0 6 0 a3 3 0 1 0 -6 0zM343.54 887.66 a3 3 0 1 0 6 0 a3 3 0 1 0 -6 0zM318.43 902.16 a3 3 0 1 0 6 0 a3 3 0 1 0 -6 0zM293.31 887.66 a3 3 0 1 0 6 0 a3 3 0 1 0 -6 0zM293.31 858.66 a3 3 0 1 0 6 0 a3 3 0 1 0 -6 0zM368.66 902.16 a3 3 0 1 0 6 0 a3 3 0 1 0 -6 0zM368.66 931.16 a3 3 0 1 0 6 0 a3 3 0 1 0 -6 0zM343.54 945.66 a3 3 0 1 0 6 0 a3 3 0 1 0 -6 0zM318.43 931.16 a3 3 0 1 0 6 0 a3 3 0 1 0 -6 0zM368.66 -25.84 a3 3 0 1 0 6 0 a3 3 0 1 0 -6 0zM393.77 -11.34 a3 3 0 1 0 6 0 a3 3 0 1 0 -6 0zM393.77 17.66 a3 3 0 1 0 6 0 a3 3 0 1 0 -6 0zM343.54 -11.34 a3 3 0 1 0 6 0 a3 3 0 1 0 -6 0zM393.77 365.66 a3 3 0 1 0 6 0 a3 3 0 1 0 -6 0zM418.89 380.16 a3 3 0 1 0 6 0 a3 3 0 1 0 -6 0zM418.89 409.16 a3 3 0 1 0 6 0 a3 3 0 1 0 -6 0zM393.77 423.66 a3 3 0 1 0 6 0 a3 3 0 1 0 -6 0zM368.66 409.16 a3 3 0 1 0 6 0 a3 3 0 1 0 -6 0zM368.66 380.16 a3 3 0 1 0 6 0 a3 3 0 1 0 -6 0zM393.77 452.66 a3 3 0 1 0 6 0 a3 3 0 1 0 -6 0zM368.66 467.16 a3 3 0 1 0 6 0 a3 3 0 1 0 -6 0zM368.66 496.16 a3 3 0 1 0 6 0 a3 3 0 1 0 -6 0zM393.77 510.66 a3 3 0 1 0 6 0 a3 3 0 1 0 -6 0zM393.77 539.66 a3 3 0 1 0 6 0 a3 3 0 1 0 -6 0zM368.66 554.16 a3 3 0 1 0 6 0 a3 3 0 1 0 -6 0zM343.54 539.66 a3 3 0 1 0 6 0 a3 3 0 1 0 -6 0zM343.54 510.66 a3 3 0 1 0 6 0 a3 3 0 1 0 -6 0zM393.77 626.66 a3 3 0 1 0 6 0 a3 3 0 1 0 -6 0zM418.89 641.16 a3 3 0 1 0 6 0 a3 3 0 1 0 -6 0zM418.89 670.16 a3 3 0 1 0 6 0 a3 3 0 1 0 -6 0zM393.77 684.66 a3 3 0 1 0 6 0 a3 3 0 1 0 -6 0zM368.66 670.16 a3 3 0 1 0 6 0 a3 3 0 1 0 -6 0zM368.66 641.16 a3 3 0 1 0 6 0 a3 3 0 1 0 -6 0zM393.77 713.66 a3 3 0 1 0 6 0 a3 3 0 1 0 -6 0zM368.66 728.16 a3 3 0 1 0 6 0 a3 3 0 1 0 -6 0zM368.66 757.16 a3 3 0 1 0 6 0 a3 3 0 1 0 -6 0zM393.77 771.66 a3 3 0 1 0 6 0 a3 3 0 1 0 -6 0zM393.77 800.66 a3 3 0 1 0 6 0 a3 3 0 1 0 -6 0zM368.66 815.16 a3 3 0 1 0 6 0 a3 3 0 1 0 -6 0zM343.54 800.66 a3 3 0 1 0 6 0 a3 3 0 1 0 -6 0zM343.54 771.66 a3 3 0 1 0 6 0 a3 3 0 1 0 -6 0zM418.89 61.16 a3 3 0 1 0 6 0 a3 3 0 1 0 -6 0zM444 75.66 a3 3 0 1 0 6 0 a3 3 0 1 0 -6 0zM444 104.66 a3 3 0 1 0 6 0 a3 3 0 1 0 -6 0zM418.89 119.16 a3 3 0 1 0 6 0 a3 3 0 1 0 -6 0zM393.77 104.66 a3 3 0 1 0 6 0 a3 3 0 1 0 -6 0zM393.77 75.66 a3 3 0 1 0 6 0 a3 3 0 1 0 -6 0zM469.12 119.16 a3 3 0 1 0 6 0 a3 3 0 1 0 -6 0zM469.12 148.16 a3 3 0 1 0 6 0 a3 3 0 1 0 -6 0zM444 162.66 a3 3 0 1 0 6 0 a3 3 0 1 0 -6 0zM418.89 148.16 a3 3 0 1 0 6 0 a3 3 0 1 0 -6 0zM444 191.66 a3 3 0 1 0 6 0 a3 3 0 1 0 -6 0zM469.12 206.16 a3 3 0 1 0 6 0 a3 3 0 1 0 -6 0zM469.12 235.16 a3 3 0 1 0 6 0 a3 3 0 1 0 -6 0zM444 249.66 a3 3 0 1 0 6 0 a3 3 0 1 0 -6 0zM418.89 235.16 a3 3 0 1 0 6 0 a3 3 0 1 0 -6 0zM418.89 206.16 a3 3 0 1 0 6 0 a3 3 0 1 0 -6 0zM418.89 322.16 a3 3 0 1 0 6 0 a3 3 0 1 0 -6 0zM444 336.66 a3 3 0 1 0 6 0 a3 3 0 1 0 -6 0zM444 365.66 a3 3 0 1 0 6 0 a3 3 0 1 0 -6 0zM393.77 336.66 a3 3 0 1 0 6 0 a3 3 0 1 0 -6 0zM444 452.66 a3 3 0 1 0 6 0 a3 3 0 1 0 -6 0zM469.12 467.16 a3 3 0 1 0 6 0 a3 3 0 1 0 -6 0zM469.12 496.16 a3 3 0 1 0 6 0 a3 3 0 1 0 -6 0zM444 510.66 a3 3 0 1 0 6 0 a3 3 0 1 0 -6 0zM418.89 496.16 a3 3 0 1 0 6 0 a3 3 0 1 0 -6 0zM418.89 467.16 a3 3 0 1 0 6 0 a3 3 0 1 0 -6 0zM444 539.66 a3 3 0 1 0 6 0 a3 3 0 1 0 -6 0zM418.89 554.16 a3 3 0 1 0 6 0 a3 3 0 1 0 -6 0zM469.12 554.16 a3 3 0 1 0 6 0 a3 3 0 1 0 -6 0zM469.12 583.16 a3 3 0 1 0 6 0 a3 3 0 1 0 -6 0zM444 597.66 a3 3 0 1 0 6 0 a3 3 0 1 0 -6 0zM418.89 583.16 a3 3 0 1 0 6 0 a3 3 0 1 0 -6 0zM444 626.66 a3 3 0 1 0 6 0 a3 3 0 1 0 -6 0zM393.77 597.66 a3 3 0 1 0 6 0 a3 3 0 1 0 -6 0zM444 684.66 a3 3 0 1 0 6 0 a3 3 0 1 0 -6 0zM444 713.66 a3 3 0 1 0 6 0 a3 3 0 1 0 -6 0zM418.89 728.16 a3 3 0 1 0 6 0 a3 3 0 1 0 -6 0z" fill="rgba(100, 252, 218, 0.13)"></path><path d="M128.82 336.13L193.78 373.63L193.78 448.63L128.82 486.13L63.87 448.63L63.87 373.63zM63.87 448.63L128.82 486.13L128.82 561.13L63.87 598.63L-1.08 561.13L-1.08 486.13zM63.87 898.63L128.82 936.13L128.82 1011.13L63.87 1048.63L-1.08 1011.13L-1.08 936.13zM323.69 -1.37L388.64 36.13L388.64 111.13L323.69 148.63L258.73 111.13L258.73 36.13zM323.69 223.63L388.64 261.13L388.64 336.13L323.69 373.63L258.73 336.13L258.73 261.13zM388.64 561.13L453.59 598.63L453.59 673.63L388.64 711.13L323.69 673.63L323.69 598.63zM323.69 673.63L388.64 711.13L388.64 786.13L323.69 823.63L258.73 786.13L258.73 711.13zM323.69 898.63L388.64 936.13L388.64 1011.13L323.69 1048.63L258.73 1011.13L258.73 936.13zM518.55 111.13L583.5 148.63L583.5 223.63L518.55 261.13L453.59 223.63L453.59 148.63zM453.59 898.63L518.55 936.13L518.55 1011.13L453.59 1048.63L388.64 1011.13L388.64 936.13z" stroke="rgba(8, 126, 139, 0.17)" stroke-width="2"></path><path d="M121.32 336.13 a7.5 7.5 0 1 0 15 0 a7.5 7.5 0 1 0 -15 0zM186.28 373.63 a7.5 7.5 0 1 0 15 0 a7.5 7.5 0 1 0 -15 0zM186.28 448.63 a7.5 7.5 0 1 0 15 0 a7.5 7.5 0 1 0 -15 0zM121.32 486.13 a7.5 7.5 0 1 0 15 0 a7.5 7.5 0 1 0 -15 0zM56.37 448.63 a7.5 7.5 0 1 0 15 0 a7.5 7.5 0 1 0 -15 0zM56.37 373.63 a7.5 7.5 0 1 0 15 0 a7.5 7.5 0 1 0 -15 0zM121.32 561.13 a7.5 7.5 0 1 0 15 0 a7.5 7.5 0 1 0 -15 0zM56.37 598.63 a7.5 7.5 0 1 0 15 0 a7.5 7.5 0 1 0 -15 0zM-8.58 561.13 a7.5 7.5 0 1 0 15 0 a7.5 7.5 0 1 0 -15 0zM-8.58 486.13 a7.5 7.5 0 1 0 15 0 a7.5 7.5 0 1 0 -15 0zM56.37 898.63 a7.5 7.5 0 1 0 15 0 a7.5 7.5 0 1 0 -15 0zM121.32 936.13 a7.5 7.5 0 1 0 15 0 a7.5 7.5 0 1 0 -15 0zM121.32 1011.13 a7.5 7.5 0 1 0 15 0 a7.5 7.5 0 1 0 -15 0zM56.37 1048.63 a7.5 7.5 0 1 0 15 0 a7.5 7.5 0 1 0 -15 0zM-8.58 1011.13 a7.5 7.5 0 1 0 15 0 a7.5 7.5 0 1 0 -15 0zM-8.58 936.13 a7.5 7.5 0 1 0 15 0 a7.5 7.5 0 1 0 -15 0zM316.19 -1.37 a7.5 7.5 0 1 0 15 0 a7.5 7.5 0 1 0 -15 0zM381.14 36.13 a7.5 7.5 0 1 0 15 0 a7.5 7.5 0 1 0 -15 0zM381.14 111.13 a7.5 7.5 0 1 0 15 0 a7.5 7.5 0 1 0 -15 0zM316.19 148.63 a7.5 7.5 0 1 0 15 0 a7.5 7.5 0 1 0 -15 0zM251.23 111.13 a7.5 7.5 0 1 0 15 0 a7.5 7.5 0 1 0 -15 0zM251.23 36.13 a7.5 7.5 0 1 0 15 0 a7.5 7.5 0 1 0 -15 0zM316.19 223.63 a7.5 7.5 0 1 0 15 0 a7.5 7.5 0 1 0 -15 0zM381.14 261.13 a7.5 7.5 0 1 0 15 0 a7.5 7.5 0 1 0 -15 0zM381.14 336.13 a7.5 7.5 0 1 0 15 0 a7.5 7.5 0 1 0 -15 0zM316.19 373.63 a7.5 7.5 0 1 0 15 0 a7.5 7.5 0 1 0 -15 0zM251.23 336.13 a7.5 7.5 0 1 0 15 0 a7.5 7.5 0 1 0 -15 0zM251.23 261.13 a7.5 7.5 0 1 0 15 0 a7.5 7.5 0 1 0 -15 0zM381.14 561.13 a7.5 7.5 0 1 0 15 0 a7.5 7.5 0 1 0 -15 0zM446.09 598.63 a7.5 7.5 0 1 0 15 0 a7.5 7.5 0 1 0 -15 0zM446.09 673.63 a7.5 7.5 0 1 0 15 0 a7.5 7.5 0 1 0 -15 0zM381.14 711.13 a7.5 7.5 0 1 0 15 0 a7.5 7.5 0 1 0 -15 0zM316.19 673.63 a7.5 7.5 0 1 0 15 0 a7.5 7.5 0 1 0 -15 0zM316.19 598.63 a7.5 7.5 0 1 0 15 0 a7.5 7.5 0 1 0 -15 0zM381.14 786.13 a7.5 7.5 0 1 0 15 0 a7.5 7.5 0 1 0 -15 0zM316.19 823.63 a7.5 7.5 0 1 0 15 0 a7.5 7.5 0 1 0 -15 0zM251.23 786.13 a7.5 7.5 0 1 0 15 0 a7.5 7.5 0 1 0 -15 0zM251.23 711.13 a7.5 7.5 0 1 0 15 0 a7.5 7.5 0 1 0 -15 0zM316.19 898.63 a7.5 7.5 0 1 0 15 0 a7.5 7.5 0 1 0 -15 0zM381.14 936.13 a7.5 7.5 0 1 0 15 0 a7.5 7.5 0 1 0 -15 0zM381.14 1011.13 a7.5 7.5 0 1 0 15 0 a7.5 7.5 0 1 0 -15 0zM316.19 1048.63 a7.5 7.5 0 1 0 15 0 a7.5 7.5 0 1 0 -15 0zM251.23 1011.13 a7.5 7.5 0 1 0 15 0 a7.5 7.5 0 1 0 -15 0zM251.23 936.13 a7.5 7.5 0 1 0 15 0 a7.5 7.5 0 1 0 -15 0zM511.05 111.13 a7.5 7.5 0 1 0 15 0 a7.5 7.5 0 1 0 -15 0zM576 148.63 a7.5 7.5 0 1 0 15 0 a7.5 7.5 0 1 0 -15 0zM576 223.63 a7.5 7.5 0 1 0 15 0 a7.5 7.5 0 1 0 -15 0zM511.05 261.13 a7.5 7.5 0 1 0 15 0 a7.5 7.5 0 1 0 -15 0zM446.09 223.63 a7.5 7.5 0 1 0 15 0 a7.5 7.5 0 1 0 -15 0zM446.09 148.63 a7.5 7.5 0 1 0 15 0 a7.5 7.5 0 1 0 -15 0zM446.09 898.63 a7.5 7.5 0 1 0 15 0 a7.5 7.5 0 1 0 -15 0zM511.05 936.13 a7.5 7.5 0 1 0 15 0 a7.5 7.5 0 1 0 -15 0zM511.05 1011.13 a7.5 7.5 0 1 0 15 0 a7.5 7.5 0 1 0 -15 0zM446.09 1048.63 a7.5 7.5 0 1 0 15 0 a7.5 7.5 0 1 0 -15 0z" fill="rgba(8, 126, 139, 0.17)"></path></g><defs><mask id="SvgjsMask1021"><rect width="412" height="914" fill="#ffffff"></rect></mask></defs></svg>