<svg xmlns="http://www.w3.org/2000/svg" version="1.1" xmlns:xlink="http://www.w3.org/1999/xlink" xmlns:svgjs="http://svgjs.com/svgjs" width="412" height="914" preserveAspectRatio="none" viewBox="0 0 412 914"><g mask="url(&quot;#SvgjsMask1079&quot;)" fill="none"><rect width="412" height="914" x="0" y="0" fill="rgba(1, 3, 4, 1)"></rect><path d="M150 352L149 879" stroke-width="8" stroke="url(#SvgjsLinearGradient1080)" stroke-linecap="round" class="Down"></path><path d="M34 854L33 1133" stroke-width="6" stroke="url(#SvgjsLinearGradient1081)" stroke-linecap="round" class="Up"></path><path d="M392 687L391 286" stroke-width="8" stroke="url(#SvgjsLinearGradient1080)" stroke-linecap="round" class="Down"></path><path d="M24 396L23 946" stroke-width="6" stroke="url(#SvgjsLinearGradient1082)" stroke-linecap="round" class="Down"></path><path d="M73 576L72 994" stroke-width="8" stroke="url(#SvgjsLinearGradient1080)" stroke-linecap="round" class="Down"></path><path d="M193 639L192 1193" stroke-width="8" stroke="url(#SvgjsLinearGradient1081)" stroke-linecap="round" class="Up"></path><path d="M81 697L80 1070" stroke-width="6" stroke="url(#SvgjsLinearGradient1083)" stroke-linecap="round" class="Up"></path><path d="M291 899L290 290" stroke-width="10" stroke="url(#SvgjsLinearGradient1082)" stroke-linecap="round" class="Down"></path><path d="M338 555L337 926" stroke-width="8" stroke="url(#SvgjsLinearGradient1083)" stroke-linecap="round" class="Up"></path><path d="M323 851L322 1176" stroke-width="10" stroke="url(#SvgjsLinearGradient1082)" stroke-linecap="round" class="Down"></path><path d="M365 276L364 711" stroke-width="8" stroke="url(#SvgjsLinearGradient1082)" stroke-linecap="round" class="Down"></path></g><defs><mask id="SvgjsMask1079"><rect width="412" height="914" fill="#ffffff"></rect></mask><linearGradient x1="0%" y1="0%" x2="0%" y2="100%" id="SvgjsLinearGradient1080"><stop stop-color="rgba(100, 252, 218, 0)" offset="0"></stop><stop stop-color="rgba(100, 252, 218, 0.26)" offset="1"></stop></linearGradient><linearGradient x1="0%" y1="100%" x2="0%" y2="0%" id="SvgjsLinearGradient1081"><stop stop-color="rgba(100, 252, 218, 0)" offset="0"></stop><stop stop-color="rgba(100, 252, 218, 0.26)" offset="1"></stop></linearGradient><linearGradient x1="0%" y1="0%" x2="0%" y2="100%" id="SvgjsLinearGradient1082"><stop stop-color="rgba(8, 126, 139, 0)" offset="0"></stop><stop stop-color="rgba(8, 126, 139, 0.29)" offset="1"></stop></linearGradient><linearGradient x1="0%" y1="100%" x2="0%" y2="0%" id="SvgjsLinearGradient1083"><stop stop-color="rgba(8, 126, 139, 0)" offset="0"></stop><stop stop-color="rgba(8, 126, 139, 0.29)" offset="1"></stop></linearGradient></defs></svg>