<svg xmlns="http://www.w3.org/2000/svg" version="1.1" xmlns:xlink="http://www.w3.org/1999/xlink" xmlns:svgjs="http://svgjs.com/svgjs" width="412" height="914" preserveAspectRatio="none" viewBox="0 0 412 914"><g mask="url(&quot;#SvgjsMask1040&quot;)" fill="none"><rect width="412" height="914" x="0" y="0" fill="rgba(1, 3, 4, 1)"></rect><path d="M355 483L354 42" stroke-width="10" stroke="url(#SvgjsLinearGradient1041)" stroke-linecap="round" class="Down"></path><path d="M318 246L317 710" stroke-width="6" stroke="url(#SvgjsLinearGradient1041)" stroke-linecap="round" class="Down"></path><path d="M107 890L106 488" stroke-width="8" stroke="url(#SvgjsLinearGradient1042)" stroke-linecap="round" class="Up"></path><path d="M1 173L0 -450" stroke-width="8" stroke="url(#SvgjsLinearGradient1041)" stroke-linecap="round" class="Down"></path><path d="M151 562L150 177" stroke-width="10" stroke="url(#SvgjsLinearGradient1042)" stroke-linecap="round" class="Up"></path><path d="M122 549L121 1121" stroke-width="10" stroke="url(#SvgjsLinearGradient1041)" stroke-linecap="round" class="Down"></path><path d="M7 565L6 -55" stroke-width="6" stroke="url(#SvgjsLinearGradient1042)" stroke-linecap="round" class="Up"></path><path d="M266 215L265 -98" stroke-width="6" stroke="url(#SvgjsLinearGradient1042)" stroke-linecap="round" class="Up"></path><path d="M80 543L79 -7" stroke-width="8" stroke="url(#SvgjsLinearGradient1042)" stroke-linecap="round" class="Up"></path><path d="M311 339L310 -226" stroke-width="8" stroke="url(#SvgjsLinearGradient1041)" stroke-linecap="round" class="Down"></path><path d="M11 600L10 364" stroke-width="8" stroke="url(#SvgjsLinearGradient1042)" stroke-linecap="round" class="Up"></path></g><defs><mask id="SvgjsMask1040"><rect width="412" height="914" fill="#ffffff"></rect></mask><linearGradient x1="0%" y1="0%" x2="0%" y2="100%" id="SvgjsLinearGradient1041"><stop stop-color="rgba(100, 252, 218, 0)" offset="0"></stop><stop stop-color="rgba(100, 252, 218, 0.31)" offset="1"></stop></linearGradient><linearGradient x1="0%" y1="100%" x2="0%" y2="0%" id="SvgjsLinearGradient1042"><stop stop-color="rgba(100, 252, 218, 0)" offset="0"></stop><stop stop-color="rgba(100, 252, 218, 0.31)" offset="1"></stop></linearGradient></defs></svg>