<svg xmlns="http://www.w3.org/2000/svg" version="1.1" xmlns:xlink="http://www.w3.org/1999/xlink" xmlns:svgjs="http://svgjs.com/svgjs" width="412" height="914" preserveAspectRatio="none" viewBox="0 0 412 914"><g mask="url(&quot;#SvgjsMask1031&quot;)" fill="none"><rect width="412" height="914" x="0" y="0" fill="rgba(1, 3, 4, 1)"></rect><path d="M199 656L198 26" stroke-width="8" stroke="url(#SvgjsLinearGradient1032)" stroke-linecap="round" class="Down"></path><path d="M228 328L227 -139" stroke-width="8" stroke="url(#SvgjsLinearGradient1032)" stroke-linecap="round" class="Down"></path><path d="M40 585L39 169" stroke-width="8" stroke="url(#SvgjsLinearGradient1033)" stroke-linecap="round" class="Up"></path><path d="M377 470L376 918" stroke-width="8" stroke="url(#SvgjsLinearGradient1033)" stroke-linecap="round" class="Up"></path><path d="M359 138L358 -511" stroke-width="10" stroke="url(#SvgjsLinearGradient1033)" stroke-linecap="round" class="Up"></path><path d="M160 101L159 413" stroke-width="6" stroke="url(#SvgjsLinearGradient1033)" stroke-linecap="round" class="Up"></path><path d="M196 833L195 409" stroke-width="10" stroke="url(#SvgjsLinearGradient1033)" stroke-linecap="round" class="Up"></path><path d="M394 723L393 1216" stroke-width="10" stroke="url(#SvgjsLinearGradient1032)" stroke-linecap="round" class="Down"></path><path d="M127 222L126 -335" stroke-width="10" stroke="url(#SvgjsLinearGradient1032)" stroke-linecap="round" class="Down"></path><path d="M372 220L371 -335" stroke-width="6" stroke="url(#SvgjsLinearGradient1033)" stroke-linecap="round" class="Up"></path><path d="M329 372L328 38" stroke-width="10" stroke="url(#SvgjsLinearGradient1032)" stroke-linecap="round" class="Down"></path></g><defs><mask id="SvgjsMask1031"><rect width="412" height="914" fill="#ffffff"></rect></mask><linearGradient x1="0%" y1="0%" x2="0%" y2="100%" id="SvgjsLinearGradient1032"><stop stop-color="rgba(8, 126, 139, 0)" offset="0"></stop><stop stop-color="rgba(8, 126, 139, 1)" offset="1"></stop></linearGradient><linearGradient x1="0%" y1="100%" x2="0%" y2="0%" id="SvgjsLinearGradient1033"><stop stop-color="rgba(8, 126, 139, 0)" offset="0"></stop><stop stop-color="rgba(8, 126, 139, 1)" offset="1"></stop></linearGradient></defs></svg>