<svg xmlns="http://www.w3.org/2000/svg" version="1.1" xmlns:xlink="http://www.w3.org/1999/xlink" xmlns:svgjs="http://svgjs.com/svgjs" width="1920" height="1080" preserveAspectRatio="none" viewBox="0 0 1920 1080"><g mask="url(&quot;#SvgjsMask1031&quot;)" fill="none"><rect width="1920" height="1080" x="0" y="0" fill="rgba(8, 126, 139, 1)"></rect><path d="M0,655.513C142.838,638.746,300.32,733.279,422.712,657.753C545.164,582.191,538.323,403.286,610.482,278.798C693.195,136.102,868.262,38.596,877.071,-126.104C886.055,-294.078,774.469,-449.035,655.786,-568.242C541.526,-683.007,382.195,-727.113,228.351,-777.692C69.529,-829.908,-91.207,-902.304,-254.751,-867.601C-423.438,-831.807,-580.727,-729.499,-676.034,-585.787C-767.005,-448.613,-758.937,-273.558,-757.863,-108.964C-756.921,35.354,-712.255,168.015,-670.212,306.076C-621.398,466.37,-640.271,687.62,-491.691,765.087C-339.718,844.323,-170.22,675.494,0,655.513" fill="#06656f"></path><path d="M1920 1875.528C2073.059 1887.9769999999999 2234.434 1852.214 2355.838 1758.1770000000001 2473.385 1667.1280000000002 2496.388 1506.392 2566.11 1375.068 2641.279 1233.4850000000001 2795.447 1115.818 2781.667 956.111 2767.871 796.216 2601.285 702.008 2497.476 579.614 2392.376 455.698 2325.506 275.55999999999995 2168.613 233.30200000000002 2011.883 191.08799999999997 1860.943 305.91999999999996 1710.863 367.745 1576.535 423.081 1424.791 459.168 1337.827 575.544 1252.8139999999999 689.309 1270.425 843.125 1250.545 983.747 1230.7179999999998 1123.991 1169.755 1267.151 1221.408 1399.036 1273.871 1532.99 1408.614 1609.737 1527.462 1690.8 1649.399 1773.97 1772.886 1863.562 1920 1875.528" fill="#0a97a7"></path></g><defs><mask id="SvgjsMask1031"><rect width="1920" height="1080" fill="#ffffff"></rect></mask></defs></svg>