<svg xmlns="http://www.w3.org/2000/svg" version="1.1" xmlns:xlink="http://www.w3.org/1999/xlink" xmlns:svgjs="http://svgjs.com/svgjs" width="412" height="914" preserveAspectRatio="none" viewBox="0 0 412 914"><g mask="url(&quot;#SvgjsMask1124&quot;)" fill="none"><rect width="412" height="914" x="0" y="0" fill="rgba(0, 0, 0, 1)"></rect><use xlink:href="#SvgjsSymbol1131" x="0" y="0"></use><use xlink:href="#SvgjsSymbol1131" x="0" y="720"></use></g><defs><mask id="SvgjsMask1124"><rect width="412" height="914" fill="#ffffff"></rect></mask><path d="M-1 0 a1 1 0 1 0 2 0 a1 1 0 1 0 -2 0z" id="SvgjsPath1127"></path><path d="M-3 0 a3 3 0 1 0 6 0 a3 3 0 1 0 -6 0z" id="SvgjsPath1130"></path><path d="M-5 0 a5 5 0 1 0 10 0 a5 5 0 1 0 -10 0z" id="SvgjsPath1125"></path><path d="M2 -2 L-2 2z" id="SvgjsPath1129"></path><path d="M6 -6 L-6 6z" id="SvgjsPath1126"></path><path d="M30 -30 L-30 30z" id="SvgjsPath1128"></path></defs><symbol id="SvgjsSymbol1131"><use xlink:href="#SvgjsPath1125" x="30" y="30" stroke="rgba(8, 126, 139, 0.55)"></use><use xlink:href="#SvgjsPath1126" x="30" y="90" stroke="rgba(8, 126, 139, 0.55)"></use><use xlink:href="#SvgjsPath1125" x="30" y="150" stroke="rgba(8, 126, 139, 0.55)"></use><use xlink:href="#SvgjsPath1125" x="30" y="210" stroke="rgba(8, 126, 139, 0.55)"></use><use xlink:href="#SvgjsPath1126" x="30" y="270" stroke="rgba(8, 126, 139, 0.55)"></use><use xlink:href="#SvgjsPath1127" x="30" y="330" stroke="rgba(8, 126, 139, 0.55)"></use><use xlink:href="#SvgjsPath1125" x="30" y="390" stroke="rgba(8, 126, 139, 0.55)"></use><use xlink:href="#SvgjsPath1125" x="30" y="450" stroke="rgba(8, 126, 139, 0.55)"></use><use xlink:href="#SvgjsPath1127" x="30" y="510" stroke="rgba(8, 126, 139, 0.55)"></use><use xlink:href="#SvgjsPath1126" x="30" y="570" stroke="rgba(8, 126, 139, 0.55)"></use><use xlink:href="#SvgjsPath1128" x="30" y="630" stroke="rgba(8, 126, 139, 0.55)" stroke-width="3"></use><use xlink:href="#SvgjsPath1127" x="30" y="690" stroke="rgba(8, 126, 139, 0.55)"></use><use xlink:href="#SvgjsPath1129" x="90" y="30" stroke="rgba(8, 126, 139, 0.55)"></use><use xlink:href="#SvgjsPath1128" x="90" y="90" stroke="rgba(8, 126, 139, 0.55)" stroke-width="3"></use><use xlink:href="#SvgjsPath1125" x="90" y="150" stroke="rgba(8, 126, 139, 0.55)"></use><use xlink:href="#SvgjsPath1125" x="90" y="210" stroke="rgba(8, 126, 139, 0.55)"></use><use xlink:href="#SvgjsPath1126" x="90" y="270" stroke="rgba(8, 126, 139, 0.55)"></use><use xlink:href="#SvgjsPath1129" x="90" y="330" stroke="rgba(8, 126, 139, 0.55)"></use><use xlink:href="#SvgjsPath1125" x="90" y="390" stroke="rgba(8, 126, 139, 0.55)"></use><use xlink:href="#SvgjsPath1125" x="90" y="450" stroke="rgba(8, 126, 139, 0.55)"></use><use xlink:href="#SvgjsPath1126" x="90" y="510" stroke="rgba(8, 126, 139, 0.55)"></use><use xlink:href="#SvgjsPath1128" x="90" y="570" stroke="rgba(8, 126, 139, 0.55)" stroke-width="3"></use><use xlink:href="#SvgjsPath1125" x="90" y="630" stroke="rgba(8, 126, 139, 0.55)"></use><use xlink:href="#SvgjsPath1126" x="90" y="690" stroke="rgba(8, 126, 139, 0.55)"></use><use xlink:href="#SvgjsPath1125" x="150" y="30" stroke="rgba(8, 126, 139, 0.55)"></use><use xlink:href="#SvgjsPath1126" x="150" y="90" stroke="rgba(8, 126, 139, 0.55)"></use><use xlink:href="#SvgjsPath1125" x="150" y="150" stroke="rgba(8, 126, 139, 0.55)"></use><use xlink:href="#SvgjsPath1125" x="150" y="210" stroke="rgba(8, 126, 139, 0.55)"></use><use xlink:href="#SvgjsPath1125" x="150" y="270" stroke="rgba(8, 126, 139, 0.55)"></use><use xlink:href="#SvgjsPath1129" x="150" y="330" stroke="rgba(8, 126, 139, 0.55)"></use><use xlink:href="#SvgjsPath1126" x="150" y="390" stroke="rgba(8, 126, 139, 0.55)"></use><use xlink:href="#SvgjsPath1130" x="150" y="450" stroke="rgba(8, 126, 139, 0.55)"></use><use xlink:href="#SvgjsPath1128" x="150" y="510" stroke="rgba(8, 126, 139, 0.55)" stroke-width="3"></use><use xlink:href="#SvgjsPath1125" x="150" y="570" stroke="rgba(8, 126, 139, 0.55)"></use><use xlink:href="#SvgjsPath1126" x="150" y="630" stroke="rgba(8, 126, 139, 0.55)"></use><use xlink:href="#SvgjsPath1126" x="150" y="690" stroke="rgba(8, 126, 139, 0.55)"></use><use xlink:href="#SvgjsPath1129" x="210" y="30" stroke="rgba(8, 126, 139, 0.55)"></use><use xlink:href="#SvgjsPath1125" x="210" y="90" stroke="rgba(8, 126, 139, 0.55)"></use><use xlink:href="#SvgjsPath1125" x="210" y="150" stroke="rgba(8, 126, 139, 0.55)"></use><use xlink:href="#SvgjsPath1127" x="210" y="210" stroke="rgba(8, 126, 139, 0.55)"></use><use xlink:href="#SvgjsPath1130" x="210" y="270" stroke="rgba(8, 126, 139, 0.55)"></use><use xlink:href="#SvgjsPath1130" x="210" y="330" stroke="rgba(8, 126, 139, 0.55)"></use><use xlink:href="#SvgjsPath1126" x="210" y="390" stroke="rgba(8, 126, 139, 0.55)"></use><use xlink:href="#SvgjsPath1129" x="210" y="450" stroke="rgba(8, 126, 139, 0.55)"></use><use xlink:href="#SvgjsPath1125" x="210" y="510" stroke="rgba(8, 126, 139, 0.55)"></use><use xlink:href="#SvgjsPath1125" x="210" y="570" stroke="rgba(8, 126, 139, 0.55)"></use><use xlink:href="#SvgjsPath1126" x="210" y="630" stroke="rgba(8, 126, 139, 0.55)"></use><use xlink:href="#SvgjsPath1129" x="210" y="690" stroke="rgba(8, 126, 139, 0.55)"></use><use xlink:href="#SvgjsPath1126" x="270" y="30" stroke="rgba(8, 126, 139, 0.55)"></use><use xlink:href="#SvgjsPath1126" x="270" y="90" stroke="rgba(8, 126, 139, 0.55)"></use><use xlink:href="#SvgjsPath1126" x="270" y="150" stroke="rgba(8, 126, 139, 0.55)"></use><use xlink:href="#SvgjsPath1126" x="270" y="210" stroke="rgba(8, 126, 139, 0.55)"></use><use xlink:href="#SvgjsPath1125" x="270" y="270" stroke="rgba(8, 126, 139, 0.55)"></use><use xlink:href="#SvgjsPath1128" x="270" y="330" stroke="rgba(8, 126, 139, 0.55)" stroke-width="3"></use><use xlink:href="#SvgjsPath1130" x="270" y="390" stroke="rgba(8, 126, 139, 0.55)"></use><use xlink:href="#SvgjsPath1125" x="270" y="450" stroke="rgba(8, 126, 139, 0.55)"></use><use xlink:href="#SvgjsPath1129" x="270" y="510" stroke="rgba(8, 126, 139, 0.55)"></use><use xlink:href="#SvgjsPath1126" x="270" y="570" stroke="rgba(8, 126, 139, 0.55)"></use><use xlink:href="#SvgjsPath1127" x="270" y="630" stroke="rgba(8, 126, 139, 0.55)"></use><use xlink:href="#SvgjsPath1125" x="270" y="690" stroke="rgba(8, 126, 139, 0.55)"></use><use xlink:href="#SvgjsPath1128" x="330" y="30" stroke="rgba(8, 126, 139, 0.55)" stroke-width="3"></use><use xlink:href="#SvgjsPath1129" x="330" y="90" stroke="rgba(8, 126, 139, 0.55)"></use><use xlink:href="#SvgjsPath1126" x="330" y="150" stroke="rgba(8, 126, 139, 0.55)"></use><use xlink:href="#SvgjsPath1125" x="330" y="210" stroke="rgba(8, 126, 139, 0.55)"></use><use xlink:href="#SvgjsPath1125" x="330" y="270" stroke="rgba(8, 126, 139, 0.55)"></use><use xlink:href="#SvgjsPath1125" x="330" y="330" stroke="rgba(8, 126, 139, 0.55)"></use><use xlink:href="#SvgjsPath1126" x="330" y="390" stroke="rgba(8, 126, 139, 0.55)"></use><use xlink:href="#SvgjsPath1125" x="330" y="450" stroke="rgba(8, 126, 139, 0.55)"></use><use xlink:href="#SvgjsPath1129" x="330" y="510" stroke="rgba(8, 126, 139, 0.55)"></use><use xlink:href="#SvgjsPath1127" x="330" y="570" stroke="rgba(8, 126, 139, 0.55)"></use><use xlink:href="#SvgjsPath1129" x="330" y="630" stroke="rgba(8, 126, 139, 0.55)"></use><use xlink:href="#SvgjsPath1126" x="330" y="690" stroke="rgba(8, 126, 139, 0.55)"></use><use xlink:href="#SvgjsPath1125" x="390" y="30" stroke="rgba(8, 126, 139, 0.55)"></use><use xlink:href="#SvgjsPath1127" x="390" y="90" stroke="rgba(8, 126, 139, 0.55)"></use><use xlink:href="#SvgjsPath1130" x="390" y="150" stroke="rgba(8, 126, 139, 0.55)"></use><use xlink:href="#SvgjsPath1129" x="390" y="210" stroke="rgba(8, 126, 139, 0.55)"></use><use xlink:href="#SvgjsPath1125" x="390" y="270" stroke="rgba(8, 126, 139, 0.55)"></use><use xlink:href="#SvgjsPath1126" x="390" y="330" stroke="rgba(8, 126, 139, 0.55)"></use><use xlink:href="#SvgjsPath1125" x="390" y="390" stroke="rgba(8, 126, 139, 0.55)"></use><use xlink:href="#SvgjsPath1127" x="390" y="450" stroke="rgba(8, 126, 139, 0.55)"></use><use xlink:href="#SvgjsPath1126" x="390" y="510" stroke="rgba(8, 126, 139, 0.55)"></use><use xlink:href="#SvgjsPath1126" x="390" y="570" stroke="rgba(8, 126, 139, 0.55)"></use><use xlink:href="#SvgjsPath1130" x="390" y="630" stroke="rgba(8, 126, 139, 0.55)"></use><use xlink:href="#SvgjsPath1125" x="390" y="690" stroke="rgba(8, 126, 139, 0.55)"></use></symbol></svg>